<svg xmlns="http://www.w3.org/2000/svg" viewBox="0 0 512 512" role="img" aria-labelledby="title">
  <title id="title">GalGro's Academy</title>
  <defs>
    <linearGradient id="crest" x1="112" y1="70" x2="404" y2="456" gradientUnits="userSpaceOnUse">
      <stop stop-color="#00e87a"/>
      <stop offset="1" stop-color="#4d8fff"/>
    </linearGradient>
    <linearGradient id="field" x1="160" y1="136" x2="352" y2="388" gradientUnits="userSpaceOnUse">
      <stop stop-color="#0b0e17" stop-opacity=".95"/>
      <stop offset="1" stop-color="#111520" stop-opacity=".78"/>
    </linearGradient>
    <filter id="glow" x="-25%" y="-25%" width="150%" height="150%">
      <feDropShadow dx="0" dy="18" stdDeviation="20" flood-color="#00e87a" flood-opacity=".22"/>
    </filter>
  </defs>
  <rect width="512" height="512" rx="96" fill="#0b0e17"/>
  <rect x="8" y="8" width="496" height="496" rx="88" fill="#111520" stroke="#2a3048" stroke-width="12"/>
  <path d="M80 144h352M80 368h352M256 72v368" stroke="#25304a" stroke-width="8" stroke-linecap="round" opacity=".72"/>
  <path d="M256 60 408 128v124.8c0 97.6-60 164-152 200.8-92-36.8-152-103.2-152-200.8V128L256 60Z" fill="url(#crest)" filter="url(#glow)"/>
  <path d="M256 99.2 371.2 149.6v96.8c0 69.6-44 122.4-115.2 154.4-71.2-32-115.2-84.8-115.2-154.4v-96.8L256 99.2Z" fill="url(#field)"/>
  <path d="M182.4 187.2h147.2v101.6H182.4V187.2Zm0 35.2h147.2M231.2 187.2v101.6M280.8 187.2v101.6" fill="none" stroke="#00e87a" stroke-width="16" stroke-linecap="round" stroke-linejoin="round"/>
  <path d="M198.4 340c21.6-25.6 40.8-38.4 58.4-38.4 16.8 0 36 12.8 56.8 38.4" fill="none" stroke="#4d8fff" stroke-width="19.2" stroke-linecap="round"/>
  <circle cx="256" cy="251.2" r="28.8" fill="#00e87a"/>
  <circle cx="256" cy="251.2" r="10.8" fill="#0b0e17"/>
</svg>
