<svg xmlns="http://www.w3.org/2000/svg" viewBox="0 0 512 512" role="img" aria-labelledby="title">
  <title id="title">GalGro's Academy</title>
  <defs>
    <linearGradient id="g" x1="112" y1="76" x2="430" y2="442" gradientUnits="userSpaceOnUse">
      <stop stop-color="#00e87a"/>
      <stop offset="1" stop-color="#4d8fff"/>
    </linearGradient>
    <filter id="shadow" x="-20%" y="-20%" width="140%" height="140%">
      <feDropShadow dx="0" dy="24" stdDeviation="26" flood-color="#00e87a" flood-opacity=".24"/>
    </filter>
  </defs>
  <rect width="512" height="512" rx="104" fill="#111520"/>
  <rect x="12" y="12" width="488" height="488" rx="92" fill="none" stroke="#2a3048" stroke-width="18"/>
  <path d="M256 62 408 126v133.6c0 96.8-61.6 163.2-152 198.4-90.4-35.2-152-101.6-152-198.4V126L256 62Z" fill="url(#g)" filter="url(#shadow)"/>
  <path d="M168 190h176v120H168V190Zm0 40h176M224 190v120M288 190v120" fill="none" stroke="#0b0e17" stroke-width="22" stroke-linecap="round" stroke-linejoin="round"/>
  <path d="M192 360c24.8-28.8 47.2-43.2 67.2-43.2 19.2 0 40.8 14.4 64.8 43.2" fill="none" stroke="#0b0e17" stroke-width="24" stroke-linecap="round"/>
  <circle cx="256" cy="262" r="34" fill="#0b0e17"/>
  <circle cx="256" cy="262" r="11" fill="#00e87a"/>
</svg>
