<svg xmlns="http://www.w3.org/2000/svg" viewBox="0 0 64 64" role="img" aria-labelledby="title">
  <title id="title">GalGro's Academy</title>
  <defs>
    <linearGradient id="g" x1="12" y1="8" x2="54" y2="56" gradientUnits="userSpaceOnUse">
      <stop stop-color="#00e87a"/>
      <stop offset="1" stop-color="#4d8fff"/>
    </linearGradient>
  </defs>
  <rect width="64" height="64" rx="14" fill="#111520"/>
  <rect x="1" y="1" width="62" height="62" rx="13" fill="none" stroke="#2a3048" stroke-width="2"/>
  <path d="M32 8 51 16v16.7c0 12.1-7.7 20.4-19 24.8-11.3-4.4-19-12.7-19-24.8V16L32 8Z" fill="url(#g)"/>
  <path d="M21 24h22v15H21V24Zm0 5h22M28 24v15M36 24v15" fill="none" stroke="#0b0e17" stroke-width="2.6" stroke-linecap="round" stroke-linejoin="round"/>
  <path d="M24 45c3.1-3.6 5.9-5.4 8.4-5.4 2.4 0 5.1 1.8 8.1 5.4" fill="none" stroke="#0b0e17" stroke-width="3" stroke-linecap="round"/>
  <circle cx="32" cy="33" r="4.3" fill="#0b0e17"/>
  <circle cx="32" cy="33" r="1.4" fill="#00e87a"/>
</svg>
